<mxfile host="app.diagrams.net" modified="2023-05-23T02:07:02.897Z" agent="Mozilla/5.0 (Macintosh; Intel Mac OS X 10_15_7) AppleWebKit/537.36 (KHTML, like Gecko) Chrome/113.0.0.0 Safari/537.36" version="21.3.2" etag="Ov4X5L3p-un68NsY64Rs" type="github">
  <diagram name="第 1 页" id="ORAu-yitMfR56Z-VQV3A">
    <mxGraphModel>
      <root>
        <mxCell id="0" />
        <mxCell id="1" parent="0" />
      </root>
    </mxGraphModel>
  </diagram>
</mxfile>
